<?xml version="1.0" encoding="UTF-8" standalone="no"?>
<svg
   xmlns:dc="http://purl.org/dc/elements/1.1/"
   xmlns:cc="http://creativecommons.org/ns#"
   xmlns:rdf="http://www.w3.org/1999/02/22-rdf-syntax-ns#"
   xmlns:svg="http://www.w3.org/2000/svg"
   xmlns="http://www.w3.org/2000/svg"
   xmlns:sodipodi="http://sodipodi.sourceforge.net/DTD/sodipodi-0.dtd"
   xmlns:inkscape="http://www.inkscape.org/namespaces/inkscape"
   sodipodi:docname="no-branch.svg"
   width="24"
   height="24"
   viewBox="0 0 6.3499999 6.3500002"
   version="1.1"
   id="svg913"
   inkscape:version="1.0 (1.0+r73+1)">
  <defs
     id="defs907" />
  <sodipodi:namedview
     inkscape:window-maximized="1"
     inkscape:window-y="0"
     inkscape:window-x="0"
     inkscape:window-height="991"
     inkscape:window-width="1920"
     id="base"
     pagecolor="#ffffff"
     bordercolor="#666666"
     borderopacity="1.0"
     inkscape:pageopacity="0.0"
     inkscape:pageshadow="2"
     inkscape:zoom="22.4"
     inkscape:cx="12.259795"
     inkscape:cy="13.523991"
     inkscape:document-units="px"
     inkscape:current-layer="layer1"
     inkscape:document-rotation="0"
     showgrid="true"
     units="px">
    <inkscape:grid
       id="grid830"
       type="xygrid" />
  </sodipodi:namedview>
  <metadata
     id="metadata910">
    <rdf:RDF>
      <cc:Work
         rdf:about="">
        <dc:format>image/svg+xml</dc:format>
        <dc:type
           rdf:resource="http://purl.org/dc/dcmitype/StillImage" />
        <dc:title />
      </cc:Work>
    </rdf:RDF>
  </metadata>
  <g
     inkscape:label="레이어 1"
     inkscape:groupmode="layer"
     id="layer1">
    <path
       id="path834"
       style="fill:#813dfd;stroke-width:0;stroke-miterlimit:1;stop-color:#000000;fill-opacity:1"
       d="M 3.1589803,2.1166666 A 1.0583334,1.0583334 0 0 0 2.1166666,3.175 1.0583334,1.0583334 0 0 0 3.175,4.2333334 1.0583334,1.0583334 0 0 0 4.2333334,3.175 1.0583334,1.0583334 0 0 0 3.175,2.1166666 a 1.0583334,1.0583334 0 0 0 -0.01602,0 z m 0.0031,0.5291667 a 0.52916671,0.52916671 0 0 1 0.012919,0 A 0.52916671,0.52916671 0 0 1 3.7041667,3.175 0.52916671,0.52916671 0 0 1 3.175,3.7041667 0.52916671,0.52916671 0 0 1 2.6458333,3.175 0.52916671,0.52916671 0 0 1 3.1620803,2.6458333 Z" />
  </g>
</svg>
